<mxfile host="app.diagrams.net" modified="2023-04-15T06:51:29.517Z" agent="Mozilla/5.0 (Windows NT 10.0; Win64; x64) AppleWebKit/537.36 (KHTML, like Gecko) Chrome/111.0.0.0 Safari/537.36" etag="sEWuxkyv3YGireBS_xjb" version="21.1.7" type="device">
  <diagram name="Page-1" id="PT-3mCSY0Vn2HJUaPOsT">
    <mxGraphModel dx="1050" dy="541" grid="1" gridSize="10" guides="1" tooltips="1" connect="1" arrows="1" fold="1" page="1" pageScale="1" pageWidth="850" pageHeight="1100" math="0" shadow="0">
      <root>
        <mxCell id="0" />
        <mxCell id="1" parent="0" />
        <mxCell id="j9MFAPH8JGgsHgtMY1j1-1" value="Komunitas" style="swimlane;whiteSpace=wrap;html=1;" vertex="1" parent="1">
          <mxGeometry x="40" y="40" width="120" height="225" as="geometry" />
        </mxCell>
        <mxCell id="j9MFAPH8JGgsHgtMY1j1-2" value="+ nama : string&lt;br&gt;+ nim : int&lt;br&gt;+ umur : string&lt;br&gt;+ jabatan : string" style="text;html=1;align=left;verticalAlign=middle;resizable=0;points=[];autosize=1;strokeColor=none;fillColor=none;" vertex="1" parent="j9MFAPH8JGgsHgtMY1j1-1">
          <mxGeometry x="5" y="25" width="110" height="70" as="geometry" />
        </mxCell>
        <mxCell id="j9MFAPH8JGgsHgtMY1j1-4" value="+ setNama : void&lt;br&gt;+ getNama : void&lt;br&gt;+ setNim : void&lt;br&gt;+ getNim : void&lt;br&gt;+ setUmur : void&lt;br&gt;+ getUmur : void&lt;br&gt;+ setJabatan : void&lt;br&gt;+ getJabatan : void" style="text;html=1;align=left;verticalAlign=middle;resizable=0;points=[];autosize=1;strokeColor=none;fillColor=none;" vertex="1" parent="j9MFAPH8JGgsHgtMY1j1-1">
          <mxGeometry x="5" y="95" width="130" height="130" as="geometry" />
        </mxCell>
        <mxCell id="j9MFAPH8JGgsHgtMY1j1-3" value="" style="endArrow=none;html=1;rounded=0;entryX=1.045;entryY=1.071;entryDx=0;entryDy=0;entryPerimeter=0;" edge="1" parent="j9MFAPH8JGgsHgtMY1j1-1" target="j9MFAPH8JGgsHgtMY1j1-2">
          <mxGeometry width="50" height="50" relative="1" as="geometry">
            <mxPoint y="100" as="sourcePoint" />
            <mxPoint x="130" y="60" as="targetPoint" />
            <Array as="points">
              <mxPoint x="60" y="100" />
            </Array>
          </mxGeometry>
        </mxCell>
        <mxCell id="j9MFAPH8JGgsHgtMY1j1-5" value="Koordinator" style="swimlane;whiteSpace=wrap;html=1;" vertex="1" parent="1">
          <mxGeometry x="280" y="40" width="135" height="100" as="geometry" />
        </mxCell>
        <mxCell id="j9MFAPH8JGgsHgtMY1j1-6" value="+ infoKoordinator : void" style="text;html=1;align=left;verticalAlign=middle;resizable=0;points=[];autosize=1;strokeColor=none;fillColor=none;" vertex="1" parent="j9MFAPH8JGgsHgtMY1j1-5">
          <mxGeometry x="5" y="45" width="150" height="30" as="geometry" />
        </mxCell>
        <mxCell id="j9MFAPH8JGgsHgtMY1j1-9" value="PengurusInti" style="swimlane;whiteSpace=wrap;html=1;" vertex="1" parent="1">
          <mxGeometry x="280" y="165" width="140" height="100" as="geometry" />
        </mxCell>
        <mxCell id="j9MFAPH8JGgsHgtMY1j1-10" value="+ infoPengurus : void" style="text;html=1;align=left;verticalAlign=middle;resizable=0;points=[];autosize=1;strokeColor=none;fillColor=none;" vertex="1" parent="j9MFAPH8JGgsHgtMY1j1-9">
          <mxGeometry x="10" y="45" width="140" height="30" as="geometry" />
        </mxCell>
        <mxCell id="j9MFAPH8JGgsHgtMY1j1-11" value="" style="endArrow=classic;html=1;rounded=0;entryX=0;entryY=0.5;entryDx=0;entryDy=0;" edge="1" parent="1" target="j9MFAPH8JGgsHgtMY1j1-5">
          <mxGeometry width="50" height="50" relative="1" as="geometry">
            <mxPoint x="160" y="90" as="sourcePoint" />
            <mxPoint x="450" y="260" as="targetPoint" />
          </mxGeometry>
        </mxCell>
        <mxCell id="j9MFAPH8JGgsHgtMY1j1-12" value="" style="endArrow=classic;html=1;rounded=0;exitX=1;exitY=0.75;exitDx=0;exitDy=0;" edge="1" parent="1" source="j9MFAPH8JGgsHgtMY1j1-1">
          <mxGeometry width="50" height="50" relative="1" as="geometry">
            <mxPoint x="190" y="210" as="sourcePoint" />
            <mxPoint x="280" y="209" as="targetPoint" />
          </mxGeometry>
        </mxCell>
      </root>
    </mxGraphModel>
  </diagram>
</mxfile>
